<svg width="36" height="36" viewBox="0 0 36 36" fill="none" xmlns="http://www.w3.org/2000/svg">
  <rect width="36" height="36" rx="9" fill="#111011"/>
  <path d="M19.6875 12.375C19.9982 12.375 20.25 12.1232 20.25 11.8125C20.25 11.5018 19.9982 11.25 19.6875 11.25C19.3768 11.25 19.125 11.5018 19.125 11.8125C19.125 12.1232 19.3768 12.375 19.6875 12.375Z" stroke="white" stroke-width="2.25" stroke-linecap="round" stroke-linejoin="round"/>
  <path d="M24.1875 16.875C24.4982 16.875 24.75 16.6232 24.75 16.3125C24.75 16.0018 24.4982 15.75 24.1875 15.75C23.8768 15.75 23.625 16.0018 23.625 16.3125C23.625 16.6232 23.8768 16.875 24.1875 16.875Z" stroke="white" stroke-width="2.25" stroke-linecap="round" stroke-linejoin="round"/>
  <path d="M14.0625 13.5C14.3732 13.5 14.625 13.2482 14.625 12.9375C14.625 12.6268 14.3732 12.375 14.0625 12.375C13.7518 12.375 13.5 12.6268 13.5 12.9375C13.5 13.2482 13.7518 13.5 14.0625 13.5Z" stroke="white" stroke-width="2.25" stroke-linecap="round" stroke-linejoin="round"/>
  <path d="M11.8125 19.125C12.1232 19.125 12.375 18.8732 12.375 18.5625C12.375 18.2518 12.1232 18 11.8125 18C11.5018 18 11.25 18.2518 11.25 18.5625C11.25 18.8732 11.5018 19.125 11.8125 19.125Z" stroke="white" stroke-width="2.25" stroke-linecap="round" stroke-linejoin="round"/>
  <path d="M18 6.75C11.8125 6.75 6.75 11.8125 6.75 18C6.75 24.1875 11.8125 29.25 18 29.25C19.0417 29.25 19.854 28.4108 19.854 27.351C19.854 26.8594 19.6515 26.4116 19.3624 26.0854C19.0361 25.7603 18.8696 25.3519 18.8696 24.8198C18.8654 24.5721 18.911 24.3262 19.0038 24.0966C19.0966 23.867 19.2346 23.6585 19.4097 23.4834C19.5848 23.3083 19.7934 23.1702 20.023 23.0774C20.2526 22.9846 20.4985 22.939 20.7461 22.9432H22.9916C26.424 22.9432 29.241 20.1274 29.241 16.695C29.2106 11.2635 24.1436 6.75 18 6.75Z" stroke="white" stroke-width="2.25" stroke-linecap="round" stroke-linejoin="round"/>
</svg>
